<svg width="629" height="406" viewBox="0 0 629 406" fill="none" xmlns="http://www.w3.org/2000/svg">
<path fill-rule="evenodd" clip-rule="evenodd" d="M604.52 1.67999C604.52 0.75215 603.768 0 602.84 0H322.56C321.632 0 320.88 0.752162 320.88 1.68V219.08C320.88 220.008 321.632 220.76 322.56 220.76H602.84C603.768 220.76 604.52 220.008 604.52 219.08L604.52 1.67999Z" fill="#A7C3FF"/>
<path fill-rule="evenodd" clip-rule="evenodd" d="M463.96 176.24H447.16L539.56 404.72H553L463.96 176.24Z" fill="#9AB9FA"/>
<path fill-rule="evenodd" clip-rule="evenodd" d="M454.72 176.24H441.28L533.68 404.72H547.12L454.72 176.24Z" fill="#A7C3FF"/>
<path fill-rule="evenodd" clip-rule="evenodd" d="M487.48 176.24H470.68L495.88 404.72H512.68L487.48 176.24Z" fill="#9AB9FA"/>
<path fill-rule="evenodd" clip-rule="evenodd" d="M481.6 176.24H468.16L493.36 404.72H506.8L481.6 176.24Z" fill="#A7C3FF"/>
<path fill-rule="evenodd" clip-rule="evenodd" d="M434.56 176.24H451.36L426.16 404.72H409.36L434.56 176.24Z" fill="#9AB9FA"/>
<path fill-rule="evenodd" clip-rule="evenodd" d="M432.04 176.24H445.48L420.28 404.72H406.84L432.04 176.24Z" fill="#A7C3FF"/>
<path d="M595.12 0H313.48C312.928 0 312.48 0.447715 312.48 1V219.76C312.48 220.312 312.928 220.76 313.48 220.76H595.12C595.672 220.76 596.12 220.312 596.12 219.76V1C596.12 0.447715 595.672 0 595.12 0Z" fill="#EAEFFF"/>
<path fill-rule="evenodd" clip-rule="evenodd" d="M336.2 27.6001C336.2 24.2864 338.886 21.6001 342.2 21.6001H492.2C495.514 21.6001 498.2 24.2864 498.2 27.6001V156C498.2 159.314 495.514 162 492.2 162H342.2C338.886 162 336.2 159.314 336.2 156V27.6001Z" fill="#D5E4FF"/>
<path d="M332.3 24C332.3 20.852 334.852 18.3 338 18.3H488C491.148 18.3 493.7 20.852 493.7 24V152.4C493.7 155.548 491.148 158.1 488 158.1H338C334.852 158.1 332.3 155.548 332.3 152.4V24Z" fill="white" stroke="#D2E0FF" stroke-width="0.6"/>
<path d="M476.84 106.8C477.006 106.8 477.14 106.935 477.14 107.1C477.14 107.248 477.034 107.37 476.894 107.395L476.84 107.4H369.2C369.035 107.4 368.9 107.266 368.9 107.1C368.9 106.953 369.007 106.831 369.146 106.805L369.2 106.8H476.84Z" fill="#D2E0FF"/>
<path d="M476.84 94.8003C477.006 94.8003 477.14 94.9346 477.14 95.1003C477.14 95.2476 477.034 95.3701 476.894 95.3955L476.84 95.4003H369.2C369.035 95.4003 368.9 95.266 368.9 95.1003C368.9 94.953 369.007 94.8305 369.146 94.8051L369.2 94.8003H476.84Z" fill="#D2E0FF"/>
<path d="M476.84 82.8003C477.006 82.8003 477.14 82.9346 477.14 83.1003C477.14 83.2476 477.034 83.3701 476.894 83.3955L476.84 83.4003H369.2C369.035 83.4003 368.9 83.266 368.9 83.1003C368.9 82.953 369.007 82.8305 369.146 82.8051L369.2 82.8003H476.84Z" fill="#D2E0FF"/>
<path d="M476.84 70.8003C477.006 70.8003 477.14 70.9346 477.14 71.1003C477.14 71.2476 477.034 71.3701 476.894 71.3955L476.84 71.4003H369.2C369.035 71.4003 368.9 71.266 368.9 71.1003C368.9 70.953 369.007 70.8305 369.146 70.8051L369.2 70.8003H476.84Z" fill="#D2E0FF"/>
<path d="M476.84 58.8003C477.006 58.8003 477.14 58.9346 477.14 59.1003C477.14 59.2476 477.034 59.3701 476.894 59.3955L476.84 59.4003H369.2C369.035 59.4003 368.9 59.266 368.9 59.1003C368.9 58.953 369.007 58.8305 369.146 58.8051L369.2 58.8003H476.84Z" fill="#D2E0FF"/>
<path d="M452.84 57.8999V60.2999H369.2V57.8999H452.84Z" fill="#4ED266"/>
<path d="M476.84 130.8C477.006 130.8 477.14 130.935 477.14 131.1C477.14 131.248 477.034 131.37 476.894 131.395L476.84 131.4H369.2C369.035 131.4 368.9 131.266 368.9 131.1C368.9 130.953 369.007 130.831 369.146 130.805L369.2 130.8H476.84Z" fill="#D2E0FF"/>
<path d="M476.84 142.8C477.006 142.8 477.14 142.935 477.14 143.1C477.14 143.248 477.034 143.37 476.894 143.395L476.84 143.4H369.2C369.035 143.4 368.9 143.266 368.9 143.1C368.9 142.953 369.007 142.831 369.146 142.805L369.2 142.8H476.84Z" fill="#D2E0FF"/>
<path d="M476.84 118.8C477.006 118.8 477.14 118.935 477.14 119.1C477.14 119.248 477.034 119.37 476.894 119.395L476.84 119.4H369.2C369.035 119.4 368.9 119.266 368.9 119.1C368.9 118.953 369.007 118.831 369.146 118.805L369.2 118.8H476.84Z" fill="#D2E0FF"/>
<path d="M361.04 57.8999V60.2999H351.2V57.8999H361.04Z" fill="#D2E0FF"/>
<path d="M428.84 69.8999V72.2999H369.2V69.8999H428.84Z" fill="#1075F0"/>
<path d="M361.04 69.8999V72.2999H351.2V69.8999H361.04Z" fill="#D2E0FF"/>
<path fill-rule="evenodd" clip-rule="evenodd" d="M422.84 81.8999V84.2999H369.2V81.8999H422.84Z" fill="#FF427B"/>
<path d="M361.04 81.8999V84.2999H351.2V81.8999H361.04Z" fill="#D2E0FF"/>
<path fill-rule="evenodd" clip-rule="evenodd" d="M416.84 93.8999V96.2999H369.2V93.8999H416.84Z" fill="#FFB518"/>
<path d="M361.04 93.8999V96.2999H351.2V93.8999H361.04Z" fill="#D2E0FF"/>
<path d="M410.84 105.9V108.3H369.2V105.9H410.84Z" fill="#B34EE6"/>
<path d="M361.04 105.9V108.3H351.2V105.9H361.04Z" fill="#D2E0FF"/>
<path d="M404.84 117.9V120.3H369.2V117.9H404.84Z" fill="#70A1FF"/>
<path d="M361.04 117.9V120.3H351.2V117.9H361.04Z" fill="#D2E0FF"/>
<path d="M398.84 129.9V132.3H369.2V129.9H398.84Z" fill="#BAF3C4"/>
<path d="M361.04 129.9V132.3H351.2V129.9H361.04Z" fill="#D2E0FF"/>
<path fill-rule="evenodd" clip-rule="evenodd" d="M392.84 141.9V144.3H369.2V141.9H392.84Z" fill="#FFC2D5"/>
<path d="M361.04 141.9V144.3H351.2V141.9H361.04Z" fill="#D2E0FF"/>
<path fill-rule="evenodd" clip-rule="evenodd" d="M479.9 33.6001C480.728 33.6001 481.4 32.9285 481.4 32.1001C481.4 31.2717 480.728 30.6001 479.9 30.6001C479.071 30.6001 478.4 31.2717 478.4 32.1001C478.4 32.9285 479.071 33.6001 479.9 33.6001Z" fill="#95B2EE"/>
<path fill-rule="evenodd" clip-rule="evenodd" d="M474.5 33.6001C475.328 33.6001 476 32.9285 476 32.1001C476 31.2717 475.328 30.6001 474.5 30.6001C473.672 30.6001 473 31.2717 473 32.1001C473 32.9285 473.672 33.6001 474.5 33.6001Z" fill="#95B2EE"/>
<path fill-rule="evenodd" clip-rule="evenodd" d="M469.1 33.6001C469.929 33.6001 470.6 32.9285 470.6 32.1001C470.6 31.2717 469.929 30.6001 469.1 30.6001C468.272 30.6001 467.6 31.2717 467.6 32.1001C467.6 32.9285 468.272 33.6001 469.1 33.6001Z" fill="#95B2EE"/>
<path d="M397.156 30C398.316 30 399.256 30.9402 399.256 32.1C399.256 33.2211 398.378 34.1371 397.272 34.1969L397.156 34.2H352.1C350.94 34.2 350 33.2598 350 32.1C350 30.9789 350.879 30.0629 351.985 30.0031L352.1 30H397.156Z" fill="#A7C3FF"/>
<path d="M332.6 44.9885H494.24" stroke="#D2E0FF" stroke-width="0.78"/>
<path fill-rule="evenodd" clip-rule="evenodd" d="M493.36 211.52H484.361V202.28L435.4 202.28V221.6H493.36V211.52Z" fill="#9AB9FA"/>
<rect width="57.96" height="19.32" transform="matrix(-1 0 0 1 477.4 202.28)" fill="#A7C3FF"/>
<path fill-rule="evenodd" clip-rule="evenodd" d="M503.44 299.72V308.96H512.68V299.72H503.44Z" fill="#A7C3FF"/>
<path fill-rule="evenodd" clip-rule="evenodd" d="M536.996 373.091H523.69L521.103 395.267H533.3L536.996 373.091Z" fill="#616988"/>
<path fill-rule="evenodd" clip-rule="evenodd" d="M533.654 392.213C534.38 391.922 535.204 392.416 535.257 393.196L535.887 402.643H495.601C495.601 400.11 497.36 397.92 499.824 397.331C505.694 395.93 515.781 393.318 517.38 391.571C519.658 389.082 522.881 392.456 525.688 393.588C527.659 394.383 531.525 393.067 533.654 392.213Z" fill="#111F53"/>
<path fill-rule="evenodd" clip-rule="evenodd" d="M535.887 400.811H495.601V404.137H535.887V400.811Z" fill="#525151"/>
<path fill-rule="evenodd" clip-rule="evenodd" d="M571.727 186.491L548.678 289.409C548.678 289.409 550.035 304.865 550.035 315.791C550.035 326.717 539.926 381.641 539.926 381.641H519.983L529.873 186.491H571.727Z" fill="#525151"/>
<path fill-rule="evenodd" clip-rule="evenodd" d="M598.35 373.091H585.044L588.371 395.267H600.567L598.35 373.091Z" fill="#616988"/>
<path fill-rule="evenodd" clip-rule="evenodd" d="M600.284 392.172C600.98 391.89 601.778 392.331 601.877 393.076L603.155 402.643H562.868C562.868 400.105 564.621 397.906 567.084 397.294C572.757 395.884 582.324 393.303 583.909 391.571C586.187 389.082 589.409 392.456 592.216 393.588C594.219 394.396 598.178 393.024 600.284 392.172Z" fill="#1B2E76"/>
<path fill-rule="evenodd" clip-rule="evenodd" d="M603.155 400.811H562.868V404.137H603.155V400.811Z" fill="#525151"/>
<path fill-rule="evenodd" clip-rule="evenodd" d="M590.207 186.861L594.139 286.083C594.139 286.083 599.192 302.648 599.192 313.574C599.192 324.5 600.91 382.01 600.91 382.01H582.815L548.996 186.861H590.207Z" fill="#6B6B6B"/>
<path fill-rule="evenodd" clip-rule="evenodd" d="M562.33 190.439L573.736 206.559L572.065 190.509L562.33 190.439Z" fill="#282828"/>
<path d="M571.823 189.376L583.249 289.486C583.249 289.486 586.604 301.905 588.374 315.641C590.145 329.377 593.81 382.01 593.81 382.01" stroke="#0D0D0D" stroke-width="0.5544"/>
<path fill-rule="evenodd" clip-rule="evenodd" d="M512.427 114.784L496.31 123.675C496.31 123.675 465.452 80.1418 462.677 76.0328C461.067 73.6492 457.271 69.8041 453.632 67.6554C451.765 66.5533 449.309 66.3175 448.202 66.1595C447.095 66.0015 445.202 67.6554 447.095 68.8898C447.546 69.1843 449.795 69.1092 451.765 70.6091C453.41 71.8614 454.651 73.9944 455.496 75.3448C458.858 80.7216 459.192 86.0568 460.295 88.3002C461.559 90.8688 477.077 119.938 485.13 135.009C487.789 139.986 493.936 141.895 498.959 139.324L520.419 128.339L512.427 114.784Z" fill="#FFC4A7"/>
<path fill-rule="evenodd" clip-rule="evenodd" d="M458.321 75.9312C458.321 75.9312 454.307 76.1086 453.51 76.4434C452.714 76.7782 450.692 80.1005 450.692 80.8429C450.692 81.5854 452.004 86.149 453.51 86.149C454.638 86.149 453.447 83.3018 453.51 81.545C453.532 80.9564 454.824 80.314 455.03 80.1196C455.851 79.3447 459.368 80.8429 459.368 80.8429L458.321 75.9312Z" fill="#FFC4A7"/>
<path fill-rule="evenodd" clip-rule="evenodd" d="M460.848 88.5752C460.848 88.5752 453.447 88.5548 452.433 87.282C451.418 86.0093 446.877 79.0743 448.787 78.3102C450.698 77.546 452.564 82.0538 453.979 82.4691C455.395 82.8844 459.669 81.8726 459.669 81.8726L460.848 88.5752Z" fill="#FFC4A7"/>
<path fill-rule="evenodd" clip-rule="evenodd" d="M532.497 102.167C537.128 99.6873 542.891 101.385 545.438 105.98L546.473 107.848C549.155 112.686 547.208 118.784 542.219 121.174L496.469 143.082C493.195 144.65 489.266 143.608 487.2 140.623L479.216 129.095L493.459 116.768L498.716 120.256L532.497 102.167Z" fill="#282828"/>
<path fill-rule="evenodd" clip-rule="evenodd" d="M592.563 108.258C592.563 104.11 589.439 100.626 585.315 100.175L558.745 97.2715L538.76 100.067C534.994 100.593 532.096 103.66 531.782 107.45L524.926 190.411H592.563V108.258Z" fill="#FFA400"/>
<path fill-rule="evenodd" clip-rule="evenodd" d="M578.166 120.256L592.41 166.988V139.282L578.166 120.256Z" fill="#080708" fill-opacity="0.340226"/>
<path fill-rule="evenodd" clip-rule="evenodd" d="M591.66 138.843L600.551 154.959C600.551 154.959 555.478 155.329 552.909 155.329C550.341 155.329 542.27 169.203 541.927 169.804C541.584 170.404 542.05 172.28 544.243 170.502C546.436 168.725 546.988 167.726 548.802 167.726C550.616 167.726 553.229 171.114 556.138 170.308C559.047 169.501 562.342 166.334 562.906 166.334C563.268 166.334 588.695 168.312 606.878 169.729C614.864 170.352 620.488 162.055 616.967 154.86L605.216 130.85L591.66 138.843Z" fill="#FFC4A7"/>
<path fill-rule="evenodd" clip-rule="evenodd" d="M593.541 106.295C591.031 101.295 584.798 99.488 580.004 102.369L578.279 103.405C573.791 106.102 572.288 111.895 574.898 116.433L595.87 152.898L589.629 154.513L598.421 172.484L608.708 170.109C616.407 168.331 620.41 159.814 616.864 152.752L593.541 106.295Z" fill="#282828"/>
<path fill-rule="evenodd" clip-rule="evenodd" d="M553.051 156.084C553.051 156.084 544.135 155.831 543.558 157.113C542.982 158.395 550.904 159.653 550.904 159.653L553.051 156.084Z" fill="#FFC4A7"/>
<path fill-rule="evenodd" clip-rule="evenodd" d="M564.006 98.0508C564.006 101.841 560.933 104.912 557.142 104.912C553.042 104.912 549.857 101.341 550.323 97.2674L550.926 92.0136C550.926 92.0136 542.267 92.6995 539.335 88.5127C536.403 84.3259 536.807 58.8228 536.807 58.8228L564.006 58.8228C564.006 58.8228 564.006 67.9248 564.006 69.7996C572.309 69.7996 572.309 79.8262 564.006 79.8262C564.006 85.7854 564.006 92.9173 564.006 98.0508Z" fill="#FFC4A7"/>
<path fill-rule="evenodd" clip-rule="evenodd" d="M551.224 88.8136C551.224 88.8136 553.794 88.4672 555.773 87.8434C557.751 87.2196 560.254 85.96 560.254 85.96C560.254 85.96 556.858 89.2596 555.072 90.6778C553.287 92.0961 550.796 93.4728 550.796 93.4728L551.224 88.8136Z" fill="#F19B93"/>
<path fill-rule="evenodd" clip-rule="evenodd" d="M548.427 82.2978L541.694 81.2139C541.592 81.1974 541.488 81.2026 541.388 81.229L537.656 82.2142C537.475 82.2619 537.359 82.437 537.384 82.6222L537.479 83.3064C537.529 83.672 537.842 83.9411 538.208 83.8983C539.007 83.8051 540.406 83.5227 541.558 82.6674C543.97 83.9442 548.059 83.9442 548.059 83.9442L548.427 82.2978Z" fill="#0A2650"/>
<path fill-rule="evenodd" clip-rule="evenodd" d="M560.713 68.7714L560.334 75.2425C560.082 79.5397 556.381 82.8111 552.086 82.5338L548.427 82.2976L545.664 88.6234C545.546 88.8927 545.28 89.0667 544.987 89.0667H540.475C540.151 89.0667 539.865 88.8556 539.769 88.546L537.95 82.6672H537.567L538.638 90.8948C538.901 92.9203 540.627 94.4357 542.669 94.4357H544.621C545.181 94.4357 545.735 94.3199 546.249 94.0956L557.924 88.9945C559.766 88.1894 561.029 86.4497 561.222 84.4482L562.896 67.1533L560.713 68.7714Z" fill="#0A2650"/>
<path fill-rule="evenodd" clip-rule="evenodd" d="M542.476 71.8452V79.0331H538.407C538.152 79.0331 537.975 78.784 538.066 78.546C538.442 77.5537 539.355 75.3028 540.267 74.247C541.456 72.8701 542.476 71.8452 542.476 71.8452Z" fill="#F19B93"/>
<path fill-rule="evenodd" clip-rule="evenodd" d="M571.371 60.3328C571.371 59.2708 559.372 49.5842 553.496 49.0342C548.728 48.5879 542.055 52.6562 539.067 52.6562C535.426 52.6562 532.637 50.2792 532.637 50.2792C532.637 50.2792 528.47 58.2015 530.686 61.3365C532.902 64.4715 537.125 66.8398 540.455 66.045C544.056 65.1853 549.827 62.3659 553.496 62.3659C560.309 62.3659 560.676 69.7938 560.676 69.7938C560.676 69.7938 562.241 69.7938 564.071 69.7938C566.449 69.7938 568.439 71.0971 568.439 71.0971C568.439 71.0971 571.371 61.3947 571.371 60.3328Z" fill="#0A2650"/>
<path fill-rule="evenodd" clip-rule="evenodd" d="M136.726 396.956C140.064 397.738 149.959 396.869 157.376 397.387C160.716 397.621 167.352 396.884 168.491 396.376C170.122 395.648 167.589 393.559 165.93 392.896C163.211 391.81 158.897 390.07 155.877 388.768C151.153 386.732 146.49 384.829 145.962 381.649C145.435 378.47 143.76 356.332 143.76 356.332L131.395 362.447C131.395 362.447 134.33 381.405 134.344 383.372C134.359 385.338 132.91 391.885 132.91 391.885C132.91 391.885 133.388 396.174 136.726 396.956Z" fill="#FFC4A7"/>
<path fill-rule="evenodd" clip-rule="evenodd" d="M134.275 381.62C134.275 381.62 135.576 384.987 139.986 385.296C144.395 385.604 146.238 382.453 146.281 381.832C146.325 381.212 146.755 380.68 147.164 380.99C147.573 381.3 155.98 388.6 157.874 388.732C159.769 388.865 167.925 389.571 169.234 392.14C170.544 394.709 168.863 397.449 168.863 397.449C168.863 397.449 158.294 398.492 147.164 397.449C136.034 396.406 134.294 397.423 133.608 396.615C132.922 395.806 132.77 392.29 132.573 391.624C131.091 386.605 134.275 381.62 134.275 381.62Z" fill="#7CA1D9"/>
<path fill-rule="evenodd" clip-rule="evenodd" d="M139.997 394.493C141.387 394.706 147.177 394.138 148.497 394.269L149.266 394.352C151.804 394.641 156.863 395.318 158.585 395.318C163.998 395.318 167.695 394.655 169.677 393.327C169.998 394.667 169.726 396.041 168.863 397.448C165.73 398.632 162.422 399.221 158.938 399.214C156.823 399.21 150.63 398.369 148.491 398.168C146.862 398.016 142.111 398.615 140.864 398.485L139.831 398.374C133.646 397.684 134.164 397.27 133.608 396.614C133.091 396.005 132.877 393.858 132.719 392.552C135.51 393.531 137.935 394.177 139.997 394.493Z" fill="#174E9F"/>
<path fill-rule="evenodd" clip-rule="evenodd" d="M97.939 178.904L121.631 287.997C121.631 287.997 120.932 304.38 120.932 315.962C120.932 327.543 130.908 365.36 130.908 365.36H145.78L136.035 178.904H97.939Z" fill="#174E9F"/>
<path fill-rule="evenodd" clip-rule="evenodd" d="M129.077 363.416C129.028 362.978 129.371 362.595 129.811 362.595H146.804C147.18 362.595 147.497 362.878 147.538 363.253L148.113 368.427C148.162 368.865 147.819 369.248 147.379 369.248H130.386C130.01 369.248 129.693 368.965 129.651 368.59L129.077 363.416Z" fill="#113C7B"/>
<path fill-rule="evenodd" clip-rule="evenodd" d="M72.8198 397.467C76.1437 398.307 86.0522 398.719 93.4593 399.367C96.7942 399.659 102.71 397.537 103.857 397.049C105.476 396.36 102.931 394.353 101.237 393.876C98.7413 393.173 94.9749 392.017 92.1102 390.723C87.4224 388.604 82.7938 385.512 82.3217 382.323C81.8497 379.135 83.9796 364.437 83.9796 364.437L72.2495 362.574L69.8056 393.82C69.8056 393.82 69.4959 396.627 72.8198 397.467Z" fill="#FFC4A7"/>
<path fill-rule="evenodd" clip-rule="evenodd" d="M70.5448 381.963C70.5448 381.963 71.6077 385.413 75.9849 386.028C80.362 386.644 82.42 383.628 82.5065 383.013C82.593 382.397 83.0592 381.897 83.4457 382.234C83.8322 382.571 91.7097 390.44 93.5902 390.704C95.4708 390.969 103.558 392.243 104.685 394.897C105.812 397.551 103.944 400.166 103.944 400.166C103.944 400.166 93.0753 401.915 82.0451 400.098C71.015 398.281 69.4606 397.729 68.8328 396.875C68.2051 396.02 68.2983 392.502 68.1487 391.825C67.02 386.714 70.5448 381.963 70.5448 381.963Z" fill="#A0C6FF"/>
<path fill-rule="evenodd" clip-rule="evenodd" d="M88.309 396.938C94.3219 397.358 99.8649 396.921 104.938 395.626C105.349 397.148 105.018 398.662 103.944 400.166C96.6984 401.332 89.3988 401.309 82.0453 400.098L78.8287 399.558C70.6941 398.16 69.3938 397.638 68.833 396.875C68.3332 396.194 68.2905 393.825 68.2183 392.546C75.6822 395.06 82.3789 396.523 88.309 396.938Z" fill="#2B6AC7"/>
<path fill-rule="evenodd" clip-rule="evenodd" d="M79.1334 179.295L74.9648 284.471C74.9648 284.471 69.6089 302.03 69.6089 313.611C69.6089 325.192 70.7443 365.382 70.7443 365.382H84.3965L116.548 179.295H79.1334Z" fill="#1E62C8"/>
<path fill-rule="evenodd" clip-rule="evenodd" d="M102.414 185.439L90.3242 202.526L92.0957 185.512L102.414 185.439Z" fill="#174E9F"/>
<path d="M92.3514 181.962L80.2399 288.078C80.2399 288.078 76.6839 301.242 74.8073 315.802C72.9308 330.363 73.1782 365.382 73.1782 365.382" stroke="#174E9F" stroke-width="0.587664"/>
<path fill-rule="evenodd" clip-rule="evenodd" d="M69.4407 363.293C69.4624 362.901 69.7864 362.595 70.1787 362.595H86.0693C86.4936 362.595 86.8309 362.951 86.8073 363.375L86.5199 368.549C86.4981 368.941 86.1741 369.248 85.7818 369.248H69.8913C69.4669 369.248 69.1297 368.891 69.1532 368.467L69.4407 363.293Z" fill="#174E9F"/>
<path fill-rule="evenodd" clip-rule="evenodd" d="M137.044 107.369L149.94 135.074L153.777 107.369C154.262 103.908 154.539 101.976 154.608 101.573C154.869 100.049 153.077 96.8306 152.855 93.6666L152.825 93.1751C152.604 90.0169 151.529 86.2541 151.681 85.193C151.839 84.096 153.27 84.8064 154.163 85.521C156.155 87.1149 156.008 89.2753 157.277 91.9141C157.726 92.8468 161.982 83.395 163.679 83.395C165.375 83.395 170.534 91.4745 170.534 94.0247C170.534 95.7248 167.996 99.1461 162.92 104.289L161.005 148.069C160.767 153.516 156.158 157.739 150.711 157.5C147.112 157.343 143.885 155.239 142.29 152.009L122.786 114.179L137.044 107.369Z" fill="#FFC4A7"/>
<path fill-rule="evenodd" clip-rule="evenodd" d="M134.149 97.5331C132.213 93.2374 127.079 91.4324 122.88 93.5715L121.295 94.3794C117.193 96.4692 115.595 101.511 117.744 105.582L142.353 152.208C146.743 160.525 159.149 158.708 160.969 149.48L163.695 135.656L150.252 130.519L149.939 132.573L134.149 97.5331Z" fill="#A0C6FF"/>
<path fill-rule="evenodd" clip-rule="evenodd" d="M133.171 103.861C133.171 103.861 142.239 119.822 142.239 124.638C142.239 129.453 137.705 143.783 137.705 143.783L132.093 132.667L133.171 103.861Z" fill="#080708" fill-opacity="0.223011"/>
<path fill-rule="evenodd" clip-rule="evenodd" d="M149.94 132.573L148.424 142.689V129.216L149.94 132.573Z" fill="#080708" fill-opacity="0.223011"/>
<path fill-rule="evenodd" clip-rule="evenodd" d="M79.0092 103.749C77.7252 98.714 81.1542 93.6964 86.3112 93.0636L108.518 90.3389L126.571 92.362C127.776 92.4971 128.821 93.2306 129.334 94.3298C131.845 99.7166 139.24 116.107 139.664 123.193C140.056 129.734 134.087 137.03 134.087 143.735C134.087 150.441 138.489 182.014 138.489 182.014L77.685 185.093C77.1477 185.12 76.7435 184.61 76.8925 184.094L88.8866 142.478L79.0092 103.749Z" fill="#FFC4A7"/>
<path fill-rule="evenodd" clip-rule="evenodd" d="M79.0092 103.748C77.7252 98.7139 81.1542 93.6962 86.3112 93.0635L99.507 91.4443C99.507 91.4443 106.578 103.04 115.147 102.32C123.716 101.601 118.815 91.4927 118.815 91.4927L126.571 92.3618C127.776 92.4969 128.821 93.2304 129.334 94.3296C131.845 99.7164 139.24 116.107 139.664 123.193C140.056 129.733 134.087 137.029 134.087 143.735C134.087 150.44 138.489 182.014 138.489 182.014L77.685 185.093C77.1477 185.12 76.7435 184.61 76.8925 184.093L88.8866 142.478L79.0092 103.748Z" fill="#E3E9FF"/>
<path fill-rule="evenodd" clip-rule="evenodd" d="M93.4356 106.993L87.7208 136.317L83.2178 120.708L93.4356 106.993Z" fill="#080708" fill-opacity="0.223011"/>
<path fill-rule="evenodd" clip-rule="evenodd" d="M157.223 77.9269C157.836 77.4647 158.758 77.5714 159.239 78.2103C159.721 78.8492 159.595 79.7455 158.956 80.227L158.062 80.9011L167.883 93.9347L182.625 97.8117C185.718 98.6278 186.193 100.838 183.766 102.759L183.628 102.865L166.25 115.961C163.716 117.871 161.675 116.898 161.667 113.779L161.669 113.603L162.005 98.3641L152.184 85.3304L151.289 86.0044C150.682 86.4618 149.843 86.3709 149.348 85.8129L149.273 85.721C148.791 85.0821 148.917 84.1858 149.556 83.7043L157.223 77.9269Z" fill="#C8DAFF"/>
<path fill-rule="evenodd" clip-rule="evenodd" d="M165.259 114.114C164.729 114.517 163.968 114.134 163.975 113.468L164.069 104.896L173.912 97.4793L182.073 99.7077C182.712 99.8824 182.874 100.715 182.346 101.116L165.259 114.114Z" fill="#FF427B"/>
<path fill-rule="evenodd" clip-rule="evenodd" d="M89.5506 111.486L70.6128 142.212C70.6128 142.212 99.9511 153.587 109.403 156.209C112.659 157.112 116.878 148.88 121.644 150.064C123.478 150.52 116.241 157.152 119.695 157.758C127.403 159.11 133.34 160.422 133.89 162.065C134.564 164.082 126.077 168.951 122.309 169.534C120.235 169.855 114.173 167.69 106.872 165.745C101.74 164.377 81.0073 159.846 65.7989 156.56C57.4243 154.75 53.1972 145.343 57.4097 137.882L76.6188 103.861L89.5506 111.486Z" fill="#FFC4A7"/>
<path fill-rule="evenodd" clip-rule="evenodd" d="M78.202 98.9491C80.5319 94.6824 86.027 93.3448 90.0572 96.0632L91.6409 97.1314C95.2808 99.5866 96.3605 104.462 94.0974 108.225L73.8168 141.94L81.4384 145.169L76.264 160.319L60.9693 156.149C54.7505 154.454 51.7463 147.396 54.8355 141.739L78.202 98.9491Z" fill="#A0C6FF"/>
<path fill-rule="evenodd" clip-rule="evenodd" d="M101.124 50.4701C109.077 34.649 128.886 44.1371 132.314 54.7787C134.143 60.4579 135.141 74.4214 131.316 80.7813C129.399 83.9678 127.842 92.5424 127.842 92.5424L109.826 91.1745L86.2617 93.0007C86.2617 93.0007 86.6262 83.8295 89.1919 80.7813C91.8719 77.5973 93.1563 75.8872 93.1563 67.9519C93.1563 60.0166 93.9464 50.4701 101.124 50.4701Z" fill="#0A2650"/>
<path fill-rule="evenodd" clip-rule="evenodd" d="M103.713 91.418C103.713 94.8753 106.516 97.6734 109.973 97.6734C113.65 97.6734 116.535 94.52 116.209 90.8579L115.485 82.7383C115.485 82.7383 123.278 83.3555 125.917 79.5874C128.556 75.8193 128.192 56.1929 128.192 56.1929L103.713 56.1929C103.713 56.1929 103.713 61.0583 103.713 62.7456C96.24 62.7456 96.24 71.7696 103.713 71.7696C103.713 77.5623 103.713 85.798 103.713 91.418Z" fill="#FFC4A7"/>
<path fill-rule="evenodd" clip-rule="evenodd" d="M115.501 82.7177C115.501 82.7177 113.188 82.4059 111.407 81.8445C109.626 81.2831 107.374 80.1494 107.374 80.1494C107.374 80.1494 110.43 83.1191 112.037 84.3955C113.644 85.6719 115.886 86.911 115.886 86.911L115.501 82.7177Z" fill="#F19B93"/>
<path fill-rule="evenodd" clip-rule="evenodd" d="M123.166 67.2808L123.166 73.7498C123.166 73.7498 125.862 72.3497 125.862 71.8032C125.862 71.2567 123.166 67.2808 123.166 67.2808Z" fill="#F19B93"/>
<path fill-rule="evenodd" clip-rule="evenodd" d="M121.22 56.7729C121.22 56.7729 123.3 61.8087 125.156 63.3231C127.013 64.8374 130.248 65.3083 130.248 65.3083L130.484 53.7964L102.69 51.7515V62.154C102.69 62.154 110.428 66.7328 114.777 64.2123C119.126 61.6918 121.22 56.7729 121.22 56.7729Z" fill="#0A2650"/>
<path fill-rule="evenodd" clip-rule="evenodd" d="M205.88 205.2H189.08V401.28H205.88V205.2Z" fill="#A7C3FF"/>
<path fill-rule="evenodd" clip-rule="evenodd" d="M208.4 205.2H198.32V401.28H208.4L208.4 205.2Z" fill="#C8DAFF"/>
<path fill-rule="evenodd" clip-rule="evenodd" d="M281.48 205.2H198.32V210.318H264.68V401.28H281.48V205.2Z" fill="#A7C3FF"/>
<path fill-rule="evenodd" clip-rule="evenodd" d="M284 205.2H273.92V401.28H284V205.2Z" fill="#C8DAFF"/>
<path fill-rule="evenodd" clip-rule="evenodd" d="M17.7202 205.2H0.920216V401.28H17.7202V205.2Z" fill="#A7C3FF"/>
<path fill-rule="evenodd" clip-rule="evenodd" d="M20.2402 205.2H10.1602V401.28H20.2402L20.2402 205.2Z" fill="#C8DAFF"/>
<path fill-rule="evenodd" clip-rule="evenodd" d="M93.3198 205.2H10.1598V211.998H76.5198V401.28H93.3198V205.2Z" fill="#A7C3FF"/>
<path fill-rule="evenodd" clip-rule="evenodd" d="M95.8398 205.2H85.7598V401.28H95.8398L95.8398 205.2Z" fill="#C8DAFF"/>
<path fill-rule="evenodd" clip-rule="evenodd" d="M200 202.68C200 201.752 199.248 201 198.32 201H2.59999C1.67215 201 0.919998 201.752 0.919998 202.68V211.92C0.919998 212.848 1.67216 213.6 2.59999 213.6H198.32C199.248 213.6 200 212.848 200 211.92V202.68Z" fill="#A7C3FF"/>
<path fill-rule="evenodd" clip-rule="evenodd" d="M284 202.68C284 201.752 283.248 201 282.32 201H87.44C86.5121 201 85.76 201.752 85.76 202.68V211.92C85.76 212.848 86.5122 213.6 87.44 213.6H282.32C283.248 213.6 284 212.848 284 211.92V202.68Z" fill="#C8DAFF"/>
<rect x="295.4" y="292" width="70" height="109.2" rx="8.4" fill="#EAEFFF"/>
<path fill-rule="evenodd" clip-rule="evenodd" d="M339.5 355C344.526 355 348.6 350.926 348.6 345.9C348.6 340.875 344.526 336.8 339.5 336.8C334.475 336.8 330.4 340.875 330.4 345.9C330.4 350.926 334.475 355 339.5 355ZM339.5 352.978C335.591 352.978 332.423 349.809 332.423 345.9C332.423 341.991 335.591 338.823 339.5 338.823C343.409 338.823 346.578 341.991 346.578 345.9C346.578 349.809 343.409 352.978 339.5 352.978Z" fill="#91B0F0"/>
<path fill-rule="evenodd" clip-rule="evenodd" d="M327.869 344.591L331.591 348.214L334.279 344.31L327.869 344.591Z" fill="#91B0F0"/>
<path fill-rule="evenodd" clip-rule="evenodd" d="M329.869 346.533L329.366 346.995L331.801 349.009L333.511 346.906L332.829 346.326L331.59 348.059L329.869 346.533Z" fill="url(#paint0_linear)"/>
<path fill-rule="evenodd" clip-rule="evenodd" d="M343.463 355.968L345.296 351.317L340.146 350.646L343.463 355.968Z" fill="#91B0F0"/>
<path fill-rule="evenodd" clip-rule="evenodd" d="M346.705 336.983L341.767 337.2L343.211 342.004L346.705 336.983Z" fill="#91B0F0"/>
<path fill-rule="evenodd" clip-rule="evenodd" d="M344.344 337.015L344.386 336.333L340.979 336.544L341.745 340.47L342.639 340.414L341.881 337.177L344.344 337.015Z" fill="url(#paint1_linear)"/>
<path fill-rule="evenodd" clip-rule="evenodd" d="M344.4 353.561L344.978 353.727L345.895 350.983L343.144 350.271L343 350.983L344.978 351.485L344.4 353.561Z" fill="url(#paint2_linear)"/>
<path d="M295.4 292H316.4V401.2H303.8C299.161 401.2 295.4 397.439 295.4 392.8V292Z" fill="#A7C3FF"/>
<path fill-rule="evenodd" clip-rule="evenodd" d="M294 292H366.8V299H294V292Z" fill="#C8DAFF"/>
<path fill-rule="evenodd" clip-rule="evenodd" d="M294 292H316.4V299H294V292Z" fill="#A7C3FF"/>
<path fill-rule="evenodd" clip-rule="evenodd" d="M331.8 395.6H350V402.6H331.8V395.6Z" fill="#A7C3FF"/>
<path fill-rule="evenodd" clip-rule="evenodd" d="M37.9199 156.32V189.12C37.9199 190.88 39.3599 192.36 41.1599 192.36C42.9199 192.36 44.3999 190.92 44.3999 189.12V156.32H37.9199Z" fill="#C8DAFF"/>
<path fill-rule="evenodd" clip-rule="evenodd" d="M38.7998 165H43.5541V188.623C43.5541 189.936 42.4898 191 41.1769 191C39.8641 191 38.7998 189.936 38.7998 188.623V165Z" fill="#FF427B"/>
<path fill-rule="evenodd" clip-rule="evenodd" d="M46.3996 156.24C46.3996 156.88 45.8796 157.4 45.2396 157.4H37.2796C36.6396 157.4 36.1196 156.88 36.1196 156.24C36.1196 155.6 36.6396 155.08 37.2796 155.08H45.2396C45.8796 155.08 46.3996 155.6 46.3996 156.24Z" fill="#C8DAFF"/>
<path fill-rule="evenodd" clip-rule="evenodd" d="M49.9199 156.32V189.12C49.9199 190.88 51.3599 192.36 53.1599 192.36C54.9199 192.36 56.3999 190.92 56.3999 189.12V156.32H49.9199Z" fill="#C8DAFF"/>
<path d="M50.7998 175H55.5541V188.623C55.5541 189.936 54.4898 191 53.1769 191C51.8641 191 50.7998 189.936 50.7998 188.623V175Z" fill="#4ED266"/>
<path fill-rule="evenodd" clip-rule="evenodd" d="M58.3996 156.24C58.3996 156.88 57.8796 157.4 57.2396 157.4H49.2796C48.6396 157.4 48.1196 156.88 48.1196 156.24C48.1196 155.6 48.6396 155.08 49.2796 155.08H57.2396C57.8796 155.08 58.3996 155.6 58.3996 156.24Z" fill="#C8DAFF"/>
<path fill-rule="evenodd" clip-rule="evenodd" d="M61.9199 156.32V189.12C61.9199 190.88 63.3599 192.36 65.1599 192.36C66.9199 192.36 68.3999 190.92 68.3999 189.12V156.32H61.9199Z" fill="#C8DAFF"/>
<path d="M62.7998 162H67.5541V188.623C67.5541 189.936 66.4898 191 65.1769 191C63.8641 191 62.7998 189.936 62.7998 188.623V162Z" fill="#1075F0"/>
<path fill-rule="evenodd" clip-rule="evenodd" d="M70.3996 156.24C70.3996 156.88 69.8796 157.4 69.2396 157.4H61.2796C60.6396 157.4 60.1196 156.88 60.1196 156.24C60.1196 155.6 60.6396 155.08 61.2796 155.08H69.2396C69.8796 155.08 70.3996 155.6 70.3996 156.24Z" fill="#C8DAFF"/>
<path fill-rule="evenodd" clip-rule="evenodd" d="M74.3201 169.48H71.8001V193.16H34.6001V169.48H32.0801V195.56C32.0801 195.626 32.1338 195.68 32.2001 195.68H73.9201C74.141 195.68 74.3201 195.501 74.3201 195.28V169.48Z" fill="#A7C3FF"/>
<path fill-rule="evenodd" clip-rule="evenodd" d="M29 193.2H77V201.2H29V193.2Z" fill="#A7C3FF"/>
<path fill-rule="evenodd" clip-rule="evenodd" d="M76.9198 170.04C76.9198 171.04 76.1198 171.84 75.1198 171.84H31.1198C30.1198 171.84 29.3198 171.04 29.3198 170.04C29.3198 169.04 30.1198 168.24 31.1198 168.24H75.1198C76.1198 168.24 76.9198 169.04 76.9198 170.04Z" fill="#A7C3FF"/>
<path fill-rule="evenodd" clip-rule="evenodd" d="M188.88 154.76V138.28H182.92V154.76C176.16 156.12 171.12 162.12 171.12 169.24C171.12 177.4 177.76 184.04 185.92 184.04C194.08 184.04 200.72 177.4 200.72 169.24C200.68 162.08 195.6 156.12 188.88 154.76Z" fill="#C8DAFF"/>
<path d="M185.5 182C190.096 182 194.063 180.056 195.904 176.837C196.607 175.608 192.792 177.927 186.165 177.504C179.537 177.082 174.545 175.607 175.5 176.97C177.478 179.794 181.215 182 185.5 182Z" fill="#B34EE6"/>
<path fill-rule="evenodd" clip-rule="evenodd" d="M191.12 138.8C191.12 139.8 190.32 140.6 189.32 140.6H182.52C181.52 140.6 180.72 139.8 180.72 138.8C180.72 137.8 181.52 137 182.52 137H189.32C190.32 137 191.12 137.8 191.12 138.8Z" fill="#C8DAFF"/>
<path fill-rule="evenodd" clip-rule="evenodd" d="M162.04 199.721C161.68 200.881 163.88 201.361 164.2 200.201C167.16 190.401 170.12 180.601 173.08 170.801C173.44 169.681 171.24 169.201 170.92 170.321C167.96 180.121 165 189.921 162.04 199.721Z" fill="#A7C3FF"/>
<path fill-rule="evenodd" clip-rule="evenodd" d="M210.52 199.721C210.88 200.881 208.68 201.361 208.36 200.201C205.4 190.401 202.44 180.601 199.48 170.801C199.12 169.681 201.32 169.201 201.64 170.321C204.6 180.121 207.56 189.921 210.52 199.721Z" fill="#A7C3FF"/>
<path fill-rule="evenodd" clip-rule="evenodd" d="M207.56 170.56C207.56 171.8 206.56 172.76 205.36 172.76H167.24C166 172.76 165.04 171.76 165.04 170.56C165.04 169.32 166.04 168.36 167.24 168.36H205.32C206.56 168.36 207.56 169.36 207.56 170.56Z" fill="#A7C3FF"/>
<path fill-rule="evenodd" clip-rule="evenodd" d="M208.96 201.04C209.8 201.04 209.8 195.72 208.96 195.72C187.52 195.72 184.88 195.72 163.4 195.72C162.52 195.68 162.52 201.04 163.4 201.04C184.84 201.04 187.48 201.04 208.96 201.04Z" fill="#A7C3FF"/>
<rect x="177.08" y="193.84" width="17.8" height="2.28" fill="#A7C3FF"/>
<path fill-rule="evenodd" clip-rule="evenodd" d="M242.061 140.28L244.964 135.727L264.469 148.161C269.446 151.335 272.46 156.829 272.46 162.732V201.38H267.06V165.694C267.06 159.791 264.047 154.296 259.069 151.123L242.061 140.28Z" fill="#A7C3FF"/>
<rect x="227.041" y="159.933" width="5.04" height="2.16" transform="rotate(-69 227.041 159.933)" fill="#A7C3FF"/>
<rect x="227.659" y="156.313" width="47.52" height="5.76" rx="0.72" transform="rotate(-69 227.659 156.313)" fill="#C8DAFF"/>
<path fill-rule="evenodd" clip-rule="evenodd" d="M228.709 142.999C227.997 142.726 227.622 141.946 227.852 141.22L233.815 122.403C234.059 121.634 234.886 121.216 235.65 121.474L245.034 124.651C245.809 124.913 246.21 125.767 245.917 126.531L238.713 145.297C238.428 146.04 237.595 146.41 236.853 146.125L228.709 142.999Z" fill="#95B2EE"/>
<path fill-rule="evenodd" clip-rule="evenodd" d="M227.347 153.109C226.604 152.824 226.233 151.991 226.518 151.248L239.678 116.967C239.963 116.225 240.796 115.854 241.538 116.139L249.604 119.235C250.347 119.52 250.718 120.353 250.433 121.096L237.273 155.377C236.988 156.119 236.155 156.49 235.413 156.205L227.347 153.109Z" fill="#A7C3FF"/>
<path fill-rule="evenodd" clip-rule="evenodd" d="M250.032 140.222C251.457 136.51 249.602 132.345 245.89 130.92C242.178 129.495 238.013 131.35 236.588 135.062C235.163 138.774 237.017 142.939 240.73 144.364C244.442 145.789 248.607 143.935 250.032 140.222Z" fill="#95B2EE"/>
<path fill-rule="evenodd" clip-rule="evenodd" d="M247.343 139.19C248.198 136.963 247.085 134.464 244.858 133.609C242.63 132.754 240.132 133.866 239.277 136.094C238.422 138.321 239.534 140.82 241.762 141.675C243.989 142.53 246.488 141.418 247.343 139.19Z" fill="#C8DAFF"/>
<path fill-rule="evenodd" clip-rule="evenodd" d="M242.156 112.52C241.413 112.235 241.043 111.402 241.328 110.66L242.039 108.806C242.423 107.806 243.75 107.54 244.554 108.248C245.708 109.263 247.317 110.491 248.925 111.109C249.985 111.516 251.045 111.657 251.975 111.67C253.19 111.686 254.322 112.973 253.886 114.107L253.427 115.304C253.142 116.046 252.309 116.417 251.566 116.132L242.156 112.52Z" fill="#95B2EE"/>
<rect x="219.72" y="174.74" width="52.56" height="4.32" rx="1.44" fill="#A7C3FF"/>
<rect x="219.72" y="193.46" width="58.32" height="7.92" rx="1.44" fill="#95B2EE"/>
<defs>
<linearGradient id="paint0_linear" x1="334.445" y1="344.067" x2="325.089" y2="344.067" gradientUnits="userSpaceOnUse">
<stop stop-color="#F9FAFF"/>
<stop offset="1" stop-color="#D1DBFF"/>
</linearGradient>
<linearGradient id="paint1_linear" x1="345.154" y1="332.852" x2="337.465" y2="332.852" gradientUnits="userSpaceOnUse">
<stop stop-color="#F9FAFF"/>
<stop offset="1" stop-color="#D1DBFF"/>
</linearGradient>
<linearGradient id="paint2_linear" x1="346.547" y1="347.361" x2="340.014" y2="347.361" gradientUnits="userSpaceOnUse">
<stop stop-color="#F9FAFF"/>
<stop offset="1" stop-color="#D1DBFF"/>
</linearGradient>
</defs>
</svg>
